<svg width="16" height="22" fill="none" xmlns="http://www.w3.org/2000/svg"><path d="M15.125 17h-.563V9.031a6.561 6.561 0 00-5.624-6.494v-.912a.937.937 0 10-1.876 0v.912A6.561 6.561 0 001.438 9.03V17H.875a.75.75 0 00-.75.75v.75c0 .103.084.188.188.188h5.062A2.627 2.627 0 008 21.313a2.627 2.627 0 002.625-2.625h5.063a.188.188 0 00.187-.188v-.75a.75.75 0 00-.75-.75zM8 19.813a1.125 1.125 0 01-1.125-1.125h2.25c0 .62-.504 1.125-1.125 1.125zM3.125 17V9.031a4.84 4.84 0 011.427-3.447A4.841 4.841 0 018 4.156c1.303 0 2.527.506 3.448 1.428a4.842 4.842 0 011.427 3.447V17h-9.75z" fill="#fff"/></svg>